<svg viewBox="0 0 220 240" xmlns="http://www.w3.org/2000/svg" role="img" aria-label="Clínica Latino — icono">
  <defs>
    <linearGradient id="cl-icon-grad" x1="10%" y1="90%" x2="90%" y2="10%">
      <stop offset="0%" stop-color="#B9DB5C"/>
      <stop offset="35%" stop-color="#5BB89A"/>
      <stop offset="65%" stop-color="#2BB3B2"/>
      <stop offset="100%" stop-color="#2C6FB1"/>
    </linearGradient>
  </defs>

  <!-- Shape A -->
  <path
    d="M 110 14
       C 88 14 70 32 70 54
       L 70 80
       L 44 80
       C 22 80 4 98 4 120
       C 4 142 22 160 44 160
       L 70 160
       C 88 160 106 142 106 120
       L 106 94
       L 132 94
       C 154 94 172 76 172 54
       C 172 32 154 14 132 14 Z"
    fill="none"
    stroke="url(#cl-icon-grad)"
    stroke-width="18"
    stroke-linejoin="round"
    stroke-linecap="round"/>

  <!-- Shape B -->
  <path
    d="M 110 160
       C 132 160 150 142 150 120
       L 150 94
       L 176 94
       C 198 94 216 112 216 134
       C 216 156 198 174 176 174
       L 150 174
       L 150 200
       C 150 222 132 240 110 240
       C 88 240 70 222 70 200
       L 70 174"
    fill="none"
    stroke="url(#cl-icon-grad)"
    stroke-width="18"
    stroke-linejoin="round"
    stroke-linecap="round"/>
</svg>
